<?xml version="1.0" ?><svg data-name="Layer 1" height="88" id="Layer_1" viewBox="0 0 88 88" width="88" xmlns="http://www.w3.org/2000/svg"><defs><style>.cls-1{fill:#e10018;}.cls-2{fill:#010200;}</style></defs><title/><path fill="#8C8896" d="M42.88,43.82a6.66,6.66,0,0,1-6-3.76l-2.22-4.63,4.22-2L41.12,38a1.93,1.93,0,0,0,2.58.91,1.93,1.93,0,0,0,.91-2.59l-2.22-4.63,4.22-2,2.23,4.63a6.63,6.63,0,0,1-3.11,8.83,6.54,6.54,0,0,1-2.85.66Z"/><path fill="#8C8896" d="M82.38,33.77l-8.47-6.88L70.21,28c-1.69,3.45-3.45,5.8-7.14,5.64C59,33.51,57.4,32.39,55.6,30c-1.93-2.53-3.62-5.11-6.07-5.4C46.88,24.3,43.9,26,43.2,26.52L31.36,32.35a26.54,26.54,0,0,0-22.23,8C5,44.74,5.13,52.54,5.36,54v6.24l4.46,3.18H80.39l2.34-4.33Zm-5,15.47-8.72,0c1.33-2.28,4-5.54,8.67-5.6l0,5.55ZM46.1,30.94l.19-.15a6,6,0,0,1,2.26-.41,5.13,5.13,0,0,1,3,2.21c3.25,4.26,5.83,6.06,11.28,6.27,3.87.15,8.37-1.14,10.42-5.71l4,3.22,0,1.86c-9.89.1-13.9,9.06-14.68,11.1L38,49.48,32.17,37.67l.39,0Zm-20,6.73-.05,0L32,49.52l-20.86.13A14.58,14.58,0,0,1,14,43.43C16,41.14,20.77,38.45,26.13,37.67ZM13,58.92l-2.38-1.51V55.12l66.77-.42,0,3.46L13,58.92Z"/></svg>